<svg width="32" height="23" viewBox="0 0 32 23" fill="currentColor" xmlns="http://www.w3.org/2000/svg">
<path d="M28.0515 2.87207C24.1303 -0.0821874 20.3738 0.00057195 20.3738 0.00057195L19.9898 0.442184C24.6514 1.85046 26.8176 3.92115 26.8176 3.92115C20.1484 0.223752 11.6532 0.250208 4.71618 3.92115C4.71618 3.92115 6.96462 1.73988 11.9004 0.331611L11.6262 0.000232957C11.6262 0.000232957 7.89701 -0.0825272 3.9485 2.87173C3.9485 2.87173 0 10.023 0 18.8308C0 18.8308 2.30335 22.8067 8.36354 23C8.36354 23 9.37812 21.7851 10.2007 20.736C6.71805 19.6869 5.40199 17.5056 5.40199 17.5056C7.58981 18.8841 9.80221 19.7469 12.559 20.2944C17.0444 21.2241 22.6236 20.2682 26.7903 17.5056C26.7903 17.5056 25.4194 19.7422 21.8273 20.7638C22.6498 21.7854 23.6371 22.9725 23.6371 22.9725C29.6966 22.7795 32 18.8037 32 18.8311C32 10.0233 28.0515 2.87207 28.0515 2.87207ZM10.8858 16.2636C9.35016 16.2636 8.08901 14.9106 8.08901 13.2262C8.20118 9.19268 13.5988 9.20523 13.683 13.2262C13.6827 14.9106 12.4488 16.2636 10.8858 16.2636ZM20.8945 16.2636C19.3589 16.2636 18.0977 14.9106 18.0977 13.2262C18.221 9.20048 23.5512 9.19878 23.6917 13.2262C23.6914 14.9106 22.4575 16.2636 20.8945 16.2636Z" fill="currentColor"/>
</svg>
