<svg width="33" height="32" viewBox="0 0 33 32" fill="currentColor" xmlns="http://www.w3.org/2000/svg">
<path d="M16.4999 0C12.582 0.000161529 8.79195 1.38638 5.80795 3.91062C2.82395 6.43487 0.840716 9.93241 0.213113 13.7774C-0.414489 17.6225 0.354492 21.5641 2.38246 24.897C4.41043 28.2299 7.56505 30.7366 11.2819 31.9686C12.1069 32.1122 12.4162 31.62 12.4162 31.1894C12.4162 30.7998 12.3956 29.5079 12.3956 28.134C8.24999 28.8927 7.17749 27.1293 6.8475 26.2065C6.48132 25.3091 5.90086 24.5137 5.15626 23.8893C4.57876 23.5817 3.75377 22.823 5.13562 22.8025C5.66326 22.8595 6.16933 23.042 6.61094 23.3347C7.05255 23.6274 7.41668 24.0216 7.67249 24.484C7.89816 24.887 8.20161 25.2419 8.56545 25.5281C8.92929 25.8144 9.34636 26.0264 9.79278 26.1522C10.2392 26.2779 10.7062 26.3148 11.167 26.2608C11.6278 26.2068 12.0733 26.0629 12.478 25.8373C12.5495 25.0034 12.9233 24.2236 13.53 23.6433C9.85873 23.2332 6.0225 21.8182 6.0225 15.5435C5.99932 13.9131 6.60443 12.3357 7.71374 11.1347C7.20931 9.71772 7.26833 8.16266 7.87874 6.78748C7.87874 6.78748 9.26055 6.35684 12.4162 8.46896C15.1161 7.73071 17.9663 7.73071 20.6661 8.46896C23.8217 6.33636 25.2036 6.78748 25.2036 6.78748C25.8141 8.16264 25.8731 9.71773 25.3686 11.1347C26.4813 12.3336 27.0869 13.9124 27.0599 15.5435C27.0599 21.8387 23.203 23.2332 19.5318 23.6433C19.9256 24.0401 20.2288 24.5165 20.421 25.0402C20.6132 25.5638 20.6897 26.1225 20.6455 26.6782C20.6455 28.8723 20.6249 30.6357 20.6249 31.1894C20.6249 31.6201 20.9343 32.1327 21.7593 31.9687C25.4695 30.7266 28.6151 28.214 30.6344 24.8794C32.6537 21.5448 33.4154 17.6052 32.7835 13.7639C32.1515 9.92261 30.1671 6.4296 27.1844 3.90843C24.2017 1.38726 20.4149 0.00202583 16.4999 0V0Z" fill="currentColor"/>
</svg>
