<svg width="39" height="39" viewBox="0 0 39 39" fill="currentColor" xmlns="http://www.w3.org/2000/svg">
<path d="M19.4999 0C14.8696 0.00019341 10.3905 1.66001 6.86394 4.68246C3.33739 7.70491 0.993573 11.8928 0.251861 16.4967C-0.489851 21.1006 0.418945 25.8201 2.81564 29.8108C5.21233 33.8016 8.94052 36.803 13.3331 38.2782C14.3081 38.4501 14.6737 37.8608 14.6737 37.3452C14.6737 36.8787 14.6493 35.3318 14.6493 33.6868C9.74998 34.5952 8.48249 32.4837 8.0925 31.3789C7.65975 30.3043 6.97374 29.352 6.09376 28.6043C5.41126 28.236 4.43627 27.3275 6.06937 27.303C6.69295 27.3712 7.29103 27.5898 7.81293 27.9402C8.33483 28.2907 8.76517 28.7627 9.06749 29.3163C9.33419 29.7989 9.69281 30.2238 10.1228 30.5666C10.5528 30.9093 11.0457 31.1632 11.5733 31.3138C12.1009 31.4643 12.6528 31.5085 13.1973 31.4438C13.7419 31.3791 14.2684 31.2069 14.7468 30.9368C14.8312 29.9382 15.273 29.0046 15.9899 28.3097C11.6512 27.8187 7.1175 26.1244 7.1175 18.6113C7.0901 16.6591 7.80523 14.7703 9.11624 13.3324C8.52009 11.6357 8.58985 9.77371 9.31124 8.12712C9.31124 8.12712 10.9443 7.61148 14.6737 10.1405C17.8644 9.25651 21.2329 9.25651 24.4236 10.1405C28.1529 7.58695 29.7861 8.12712 29.7861 8.12712C30.5076 9.77369 30.5773 11.6357 29.9811 13.3324C31.296 14.7679 32.0118 16.6583 31.9798 18.6113C31.9798 26.149 27.4217 27.8187 23.083 28.3097C23.5484 28.7848 23.9068 29.3553 24.1339 29.9823C24.361 30.6093 24.4515 31.2782 24.3993 31.9436C24.3993 34.5708 24.3749 36.6823 24.3749 37.3452C24.3749 37.8609 24.7405 38.4747 25.7155 38.2783C30.1003 36.7911 33.8178 33.7826 36.2043 29.7898C38.5908 25.7971 39.4909 21.0799 38.7441 16.4805C37.9972 11.881 35.652 7.6986 32.127 4.67983C28.602 1.66106 24.1267 0.00242566 19.4999 0V0Z" fill="currentColor"/>
</svg>
