<svg width="45" height="45" viewBox="0 0 45 45" fill="none" xmlns="http://www.w3.org/2000/svg">
<path d="M22.5 20.8266L40.4718 9.28125C39.7493 8.7393 38.8719 8.44355 37.9687 8.4375H7.0312C6.12802 8.44355 5.25062 8.7393 4.52808 9.28125L22.5 20.8266Z" fill="#231F20"/>
<path d="M23.2594 23.6812L23.0203 23.7937H22.9078C22.7783 23.8516 22.6408 23.8895 22.5 23.9062V23.9062C22.3833 23.9209 22.2652 23.9209 22.1484 23.9062H22.0359L21.7969 23.7937L2.95312 11.6156C2.86309 11.9553 2.81585 12.3048 2.8125 12.6562V32.3437C2.8125 33.4626 3.25697 34.5357 4.04814 35.3268C4.83931 36.118 5.91237 36.5625 7.03125 36.5625H37.9688C39.0876 36.5625 40.1607 36.118 40.9519 35.3268C41.743 34.5357 42.1875 33.4626 42.1875 32.3437V12.6562C42.1841 12.3048 42.1369 11.9553 42.0469 11.6156L23.2594 23.6812Z" fill="#231F20"/>
</svg>
